<svg width="54" height="46" viewBox="0 0 54 46" fill="none" xmlns="http://www.w3.org/2000/svg">
<path fill-rule="evenodd" clip-rule="evenodd" d="M26.6964 18.6316L21.3238 21.881C20.8948 22.1271 20.3664 21.9529 20.1299 21.4874V21.4874C20.0615 21.3432 20.0245 21.1834 20.0221 21.0206V6.62244C20.0221 3.87644 21.7218 2.77805 24.1676 2.77805H29.9133C32.2846 2.77805 34.0588 3.80322 34.0588 6.43937V21.0206C34.0588 21.2804 33.9654 21.5295 33.799 21.7132C33.6326 21.8968 33.407 22 33.1717 22C33.0216 21.9974 32.8741 21.9567 32.7406 21.881L27.3348 18.6316C27.1356 18.5128 26.8956 18.5128 26.6964 18.6316Z" stroke="#67686D" stroke-width="2" stroke-linecap="round" stroke-linejoin="round"/>
<path d="M3.48047 41.084L5.17969 34.4688H6.07031L5.9707 36.1738L4.1543 43H3.22852L3.48047 41.084ZM2.20898 34.4688L3.58594 41.0312L3.70898 43H2.72461L0.75 34.4688H2.20898ZM7.99805 41.0137L9.35742 34.4688H10.8223L8.84766 43H7.86328L7.99805 41.0137ZM6.41602 34.4688L8.09766 41.1016L8.34375 43H7.41797L5.63086 36.1738L5.53711 34.4688H6.41602ZM15.1465 41.7285V38.7051C15.1465 38.4785 15.1055 38.2832 15.0234 38.1191C14.9414 37.9551 14.8164 37.8281 14.6484 37.7383C14.4844 37.6484 14.2773 37.6035 14.0273 37.6035C13.7969 37.6035 13.5977 37.6426 13.4297 37.7207C13.2617 37.7988 13.1309 37.9043 13.0371 38.0371C12.9434 38.1699 12.8965 38.3203 12.8965 38.4883H11.4902C11.4902 38.2383 11.5508 37.9961 11.6719 37.7617C11.793 37.5273 11.9688 37.3184 12.1992 37.1348C12.4297 36.9512 12.7051 36.8066 13.0254 36.7012C13.3457 36.5957 13.7051 36.543 14.1035 36.543C14.5801 36.543 15.002 36.623 15.3691 36.7832C15.7402 36.9434 16.0312 37.1855 16.2422 37.5098C16.457 37.8301 16.5645 38.2324 16.5645 38.7168V41.5352C16.5645 41.8242 16.584 42.084 16.623 42.3145C16.666 42.541 16.7266 42.7383 16.8047 42.9062V43H15.3574C15.291 42.8477 15.2383 42.6543 15.1992 42.4199C15.1641 42.1816 15.1465 41.9512 15.1465 41.7285ZM15.3516 39.1445L15.3633 40.0176H14.3496C14.0879 40.0176 13.8574 40.043 13.6582 40.0938C13.459 40.1406 13.293 40.2109 13.1602 40.3047C13.0273 40.3984 12.9277 40.5117 12.8613 40.6445C12.7949 40.7773 12.7617 40.9277 12.7617 41.0957C12.7617 41.2637 12.8008 41.418 12.8789 41.5586C12.957 41.6953 13.0703 41.8027 13.2188 41.8809C13.3711 41.959 13.5547 41.998 13.7695 41.998C14.0586 41.998 14.3105 41.9395 14.5254 41.8223C14.7441 41.7012 14.916 41.5547 15.041 41.3828C15.166 41.207 15.2324 41.041 15.2402 40.8848L15.6973 41.5117C15.6504 41.6719 15.5703 41.8438 15.457 42.0273C15.3438 42.2109 15.1953 42.3867 15.0117 42.5547C14.832 42.7188 14.6152 42.8535 14.3613 42.959C14.1113 43.0645 13.8223 43.1172 13.4941 43.1172C13.0801 43.1172 12.7109 43.0352 12.3867 42.8711C12.0625 42.7031 11.8086 42.4785 11.625 42.1973C11.4414 41.9121 11.3496 41.5898 11.3496 41.2305C11.3496 40.8945 11.4121 40.5977 11.5371 40.3398C11.666 40.0781 11.8535 39.8594 12.0996 39.6836C12.3496 39.5078 12.6543 39.375 13.0137 39.2852C13.373 39.1914 13.7832 39.1445 14.2441 39.1445H15.3516ZM20.9473 36.6602V37.6914H17.373V36.6602H20.9473ZM18.4043 35.1074H19.8164V41.248C19.8164 41.4434 19.8438 41.5938 19.8984 41.6992C19.957 41.8008 20.0371 41.8691 20.1387 41.9043C20.2402 41.9395 20.3594 41.957 20.4961 41.957C20.5938 41.957 20.6875 41.9512 20.7773 41.9395C20.8672 41.9277 20.9395 41.916 20.9941 41.9043L21 42.9824C20.8828 43.0176 20.7461 43.0488 20.5898 43.0762C20.4375 43.1035 20.2617 43.1172 20.0625 43.1172C19.7383 43.1172 19.4512 43.0605 19.2012 42.9473C18.9512 42.8301 18.7559 42.6406 18.6152 42.3789C18.4746 42.1172 18.4043 41.7695 18.4043 41.3359V35.1074ZM24.627 41.9922C24.8574 41.9922 25.0645 41.9473 25.248 41.8574C25.4355 41.7637 25.5859 41.6348 25.6992 41.4707C25.8164 41.3066 25.8809 41.1172 25.8926 40.9023H27.2227C27.2148 41.3125 27.0938 41.6855 26.8594 42.0215C26.625 42.3574 26.3145 42.625 25.9277 42.8242C25.541 43.0195 25.1133 43.1172 24.6445 43.1172C24.1602 43.1172 23.7383 43.0352 23.3789 42.8711C23.0195 42.7031 22.7207 42.4727 22.4824 42.1797C22.2441 41.8867 22.0645 41.5488 21.9434 41.166C21.8262 40.7832 21.7676 40.373 21.7676 39.9355V39.7305C21.7676 39.293 21.8262 38.8828 21.9434 38.5C22.0645 38.1133 22.2441 37.7734 22.4824 37.4805C22.7207 37.1875 23.0195 36.959 23.3789 36.7949C23.7383 36.627 24.1582 36.543 24.6387 36.543C25.1465 36.543 25.5918 36.6445 25.9746 36.8477C26.3574 37.0469 26.6582 37.3262 26.877 37.6855C27.0996 38.041 27.2148 38.4551 27.2227 38.9277H25.8926C25.8809 38.6934 25.8223 38.4824 25.7168 38.2949C25.6152 38.1035 25.4707 37.9512 25.2832 37.8379C25.0996 37.7246 24.8789 37.668 24.6211 37.668C24.3359 37.668 24.0996 37.7266 23.9121 37.8438C23.7246 37.957 23.5781 38.1133 23.4727 38.3125C23.3672 38.5078 23.291 38.7285 23.2441 38.9746C23.2012 39.2168 23.1797 39.4688 23.1797 39.7305V39.9355C23.1797 40.1973 23.2012 40.4512 23.2441 40.6973C23.2871 40.9434 23.3613 41.1641 23.4668 41.3594C23.5762 41.5508 23.7246 41.7051 23.9121 41.8223C24.0996 41.9355 24.3379 41.9922 24.627 41.9922ZM29.7012 34V43H28.2949V34H29.7012ZM29.4551 39.5957L28.998 39.5898C29.002 39.1523 29.0625 38.748 29.1797 38.377C29.3008 38.0059 29.4688 37.6836 29.6836 37.4102C29.9023 37.1328 30.1641 36.9199 30.4688 36.7715C30.7734 36.6191 31.1113 36.543 31.4824 36.543C31.7949 36.543 32.0762 36.5859 32.3262 36.6719C32.5801 36.7578 32.7988 36.8965 32.9824 37.0879C33.166 37.2754 33.3047 37.5215 33.3984 37.8262C33.4961 38.127 33.5449 38.4941 33.5449 38.9277V43H32.127V38.916C32.127 38.6113 32.082 38.3691 31.9922 38.1895C31.9062 38.0098 31.7793 37.8809 31.6113 37.8027C31.4434 37.7207 31.2383 37.6797 30.9961 37.6797C30.7422 37.6797 30.5176 37.7305 30.3223 37.832C30.1309 37.9336 29.9707 38.0723 29.8418 38.248C29.7129 38.4238 29.6152 38.627 29.5488 38.8574C29.4863 39.0879 29.4551 39.334 29.4551 39.5957ZM39.4746 34V43H38.0566V34H39.4746ZM42.5332 36.6602V43H41.1152V36.6602H42.5332ZM41.0215 34.9961C41.0215 34.7812 41.0918 34.6035 41.2324 34.4629C41.377 34.3184 41.5762 34.2461 41.8301 34.2461C42.0801 34.2461 42.2773 34.3184 42.4219 34.4629C42.5664 34.6035 42.6387 34.7812 42.6387 34.9961C42.6387 35.207 42.5664 35.3828 42.4219 35.5234C42.2773 35.6641 42.0801 35.7344 41.8301 35.7344C41.5762 35.7344 41.377 35.6641 41.2324 35.5234C41.0918 35.3828 41.0215 35.207 41.0215 34.9961ZM47.6367 41.2832C47.6367 41.1426 47.6016 41.0156 47.5312 40.9023C47.4609 40.7852 47.3262 40.6797 47.127 40.5859C46.9316 40.4922 46.6426 40.4062 46.2598 40.3281C45.9238 40.2539 45.6152 40.166 45.334 40.0645C45.0566 39.959 44.8184 39.832 44.6191 39.6836C44.4199 39.5352 44.2656 39.3594 44.1562 39.1562C44.0469 38.9531 43.9922 38.7188 43.9922 38.4531C43.9922 38.1953 44.0488 37.9512 44.1621 37.7207C44.2754 37.4902 44.4375 37.2871 44.6484 37.1113C44.8594 36.9355 45.1152 36.7969 45.416 36.6953C45.7207 36.5938 46.0605 36.543 46.4355 36.543C46.9668 36.543 47.4219 36.6328 47.8008 36.8125C48.1836 36.9883 48.4766 37.2285 48.6797 37.5332C48.8828 37.834 48.9844 38.1738 48.9844 38.5527H47.5723C47.5723 38.3848 47.5293 38.2285 47.4434 38.084C47.3613 37.9355 47.2363 37.8164 47.0684 37.7266C46.9004 37.6328 46.6895 37.5859 46.4355 37.5859C46.1934 37.5859 45.9922 37.625 45.832 37.7031C45.6758 37.7773 45.5586 37.875 45.4805 37.9961C45.4062 38.1172 45.3691 38.25 45.3691 38.3945C45.3691 38.5 45.3887 38.5957 45.4277 38.6816C45.4707 38.7637 45.541 38.8398 45.6387 38.9102C45.7363 38.9766 45.8691 39.0391 46.0371 39.0977C46.209 39.1562 46.4238 39.2129 46.6816 39.2676C47.166 39.3691 47.582 39.5 47.9297 39.6602C48.2812 39.8164 48.5508 40.0195 48.7383 40.2695C48.9258 40.5156 49.0195 40.8281 49.0195 41.207C49.0195 41.4883 48.959 41.7461 48.8379 41.9805C48.7207 42.2109 48.5488 42.4121 48.3223 42.584C48.0957 42.752 47.8242 42.8828 47.5078 42.9766C47.1953 43.0703 46.8438 43.1172 46.4531 43.1172C45.8789 43.1172 45.3926 43.0156 44.9941 42.8125C44.5957 42.6055 44.293 42.3418 44.0859 42.0215C43.8828 41.6973 43.7812 41.3613 43.7812 41.0137H45.1465C45.1621 41.2754 45.2344 41.4844 45.3633 41.6406C45.4961 41.793 45.6602 41.9043 45.8555 41.9746C46.0547 42.041 46.2598 42.0742 46.4707 42.0742C46.7246 42.0742 46.9375 42.041 47.1094 41.9746C47.2812 41.9043 47.4121 41.8105 47.502 41.6934C47.5918 41.5723 47.6367 41.4355 47.6367 41.2832ZM53.1621 36.6602V37.6914H49.5879V36.6602H53.1621ZM50.6191 35.1074H52.0312V41.248C52.0312 41.4434 52.0586 41.5938 52.1133 41.6992C52.1719 41.8008 52.252 41.8691 52.3535 41.9043C52.4551 41.9395 52.5742 41.957 52.7109 41.957C52.8086 41.957 52.9023 41.9512 52.9922 41.9395C53.082 41.9277 53.1543 41.916 53.209 41.9043L53.2148 42.9824C53.0977 43.0176 52.9609 43.0488 52.8047 43.0762C52.6523 43.1035 52.4766 43.1172 52.2773 43.1172C51.9531 43.1172 51.666 43.0605 51.416 42.9473C51.166 42.8301 50.9707 42.6406 50.8301 42.3789C50.6895 42.1172 50.6191 41.7695 50.6191 41.3359V35.1074Z" fill="#67686D"/>
</svg>
