<svg width="38" height="46" viewBox="0 0 38 46" fill="none" xmlns="http://www.w3.org/2000/svg">
<ellipse cx="18.7885" cy="11.7666" rx="8.14181" ry="8.98856" stroke="#67686D" stroke-width="2" stroke-linecap="round" stroke-linejoin="round"/>
<path d="M24.4513 18.4851L27.6433 22" stroke="#67686D" stroke-width="2" stroke-linecap="round" stroke-linejoin="round"/>
<path d="M5.74023 40.8027C5.74023 40.627 5.71289 40.4707 5.6582 40.334C5.60742 40.1973 5.51562 40.0723 5.38281 39.959C5.25 39.8457 5.0625 39.7363 4.82031 39.6309C4.58203 39.5215 4.27734 39.4102 3.90625 39.2969C3.5 39.1719 3.125 39.0332 2.78125 38.8809C2.44141 38.7246 2.14453 38.5449 1.89062 38.3418C1.63672 38.1348 1.43945 37.8984 1.29883 37.6328C1.1582 37.3633 1.08789 37.0527 1.08789 36.7012C1.08789 36.3535 1.16016 36.0371 1.30469 35.752C1.45312 35.4668 1.66211 35.2207 1.93164 35.0137C2.20508 34.8027 2.52734 34.6406 2.89844 34.5273C3.26953 34.4102 3.67969 34.3516 4.12891 34.3516C4.76172 34.3516 5.30664 34.4688 5.76367 34.7031C6.22461 34.9375 6.57812 35.252 6.82422 35.6465C7.07422 36.041 7.19922 36.4766 7.19922 36.9531H5.74023C5.74023 36.6719 5.67969 36.4238 5.55859 36.209C5.44141 35.9902 5.26172 35.8184 5.01953 35.6934C4.78125 35.5684 4.47852 35.5059 4.11133 35.5059C3.76367 35.5059 3.47461 35.5586 3.24414 35.6641C3.01367 35.7695 2.8418 35.9121 2.72852 36.0918C2.61523 36.2715 2.55859 36.4746 2.55859 36.7012C2.55859 36.8613 2.5957 37.0078 2.66992 37.1406C2.74414 37.2695 2.85742 37.3906 3.00977 37.5039C3.16211 37.6133 3.35352 37.7168 3.58398 37.8145C3.81445 37.9121 4.08594 38.0059 4.39844 38.0957C4.87109 38.2363 5.2832 38.3926 5.63477 38.5645C5.98633 38.7324 6.2793 38.9238 6.51367 39.1387C6.74805 39.3535 6.92383 39.5977 7.04102 39.8711C7.1582 40.1406 7.2168 40.4473 7.2168 40.791C7.2168 41.1504 7.14453 41.4746 7 41.7637C6.85547 42.0488 6.64844 42.293 6.37891 42.4961C6.11328 42.6953 5.79297 42.8496 5.41797 42.959C5.04688 43.0645 4.63281 43.1172 4.17578 43.1172C3.76562 43.1172 3.36133 43.0625 2.96289 42.9531C2.56836 42.8438 2.20898 42.6777 1.88477 42.4551C1.56055 42.2285 1.30273 41.9473 1.11133 41.6113C0.919922 41.2715 0.824219 40.875 0.824219 40.4219H2.29492C2.29492 40.6992 2.3418 40.9355 2.43555 41.1309C2.5332 41.3262 2.66797 41.4863 2.83984 41.6113C3.01172 41.7324 3.21094 41.8223 3.4375 41.8809C3.66797 41.9395 3.91406 41.9688 4.17578 41.9688C4.51953 41.9688 4.80664 41.9199 5.03711 41.8223C5.27148 41.7246 5.44727 41.5879 5.56445 41.4121C5.68164 41.2363 5.74023 41.0332 5.74023 40.8027ZM11.1719 43.1172C10.7031 43.1172 10.2793 43.041 9.90039 42.8887C9.52539 42.7324 9.20508 42.5156 8.93945 42.2383C8.67773 41.9609 8.47656 41.6348 8.33594 41.2598C8.19531 40.8848 8.125 40.4805 8.125 40.0469V39.8125C8.125 39.3164 8.19727 38.8672 8.3418 38.4648C8.48633 38.0625 8.6875 37.7188 8.94531 37.4336C9.20312 37.1445 9.50781 36.9238 9.85938 36.7715C10.2109 36.6191 10.5918 36.543 11.002 36.543C11.4551 36.543 11.8516 36.6191 12.1914 36.7715C12.5312 36.9238 12.8125 37.1387 13.0352 37.416C13.2617 37.6895 13.4297 38.0156 13.5391 38.3945C13.6523 38.7734 13.709 39.1914 13.709 39.6484V40.252H8.81055V39.2383H12.3145V39.127C12.3066 38.873 12.2559 38.6348 12.1621 38.4121C12.0723 38.1895 11.9336 38.0098 11.7461 37.873C11.5586 37.7363 11.3086 37.668 10.9961 37.668C10.7617 37.668 10.5527 37.7188 10.3691 37.8203C10.1895 37.918 10.0391 38.0605 9.91797 38.248C9.79688 38.4355 9.70312 38.6621 9.63672 38.9277C9.57422 39.1895 9.54297 39.4844 9.54297 39.8125V40.0469C9.54297 40.3242 9.58008 40.582 9.6543 40.8203C9.73242 41.0547 9.8457 41.2598 9.99414 41.4355C10.1426 41.6113 10.3223 41.75 10.5332 41.8516C10.7441 41.9492 10.9844 41.998 11.2539 41.998C11.5938 41.998 11.8965 41.9297 12.1621 41.793C12.4277 41.6562 12.6582 41.4629 12.8535 41.2129L13.5977 41.9336C13.4609 42.1328 13.2832 42.3242 13.0645 42.5078C12.8457 42.6875 12.5781 42.834 12.2617 42.9473C11.9492 43.0605 11.5859 43.1172 11.1719 43.1172ZM18.3848 41.7285V38.7051C18.3848 38.4785 18.3438 38.2832 18.2617 38.1191C18.1797 37.9551 18.0547 37.8281 17.8867 37.7383C17.7227 37.6484 17.5156 37.6035 17.2656 37.6035C17.0352 37.6035 16.8359 37.6426 16.668 37.7207C16.5 37.7988 16.3691 37.9043 16.2754 38.0371C16.1816 38.1699 16.1348 38.3203 16.1348 38.4883H14.7285C14.7285 38.2383 14.7891 37.9961 14.9102 37.7617C15.0312 37.5273 15.207 37.3184 15.4375 37.1348C15.668 36.9512 15.9434 36.8066 16.2637 36.7012C16.584 36.5957 16.9434 36.543 17.3418 36.543C17.8184 36.543 18.2402 36.623 18.6074 36.7832C18.9785 36.9434 19.2695 37.1855 19.4805 37.5098C19.6953 37.8301 19.8027 38.2324 19.8027 38.7168V41.5352C19.8027 41.8242 19.8223 42.084 19.8613 42.3145C19.9043 42.541 19.9648 42.7383 20.043 42.9062V43H18.5957C18.5293 42.8477 18.4766 42.6543 18.4375 42.4199C18.4023 42.1816 18.3848 41.9512 18.3848 41.7285ZM18.5898 39.1445L18.6016 40.0176H17.5879C17.3262 40.0176 17.0957 40.043 16.8965 40.0938C16.6973 40.1406 16.5312 40.2109 16.3984 40.3047C16.2656 40.3984 16.166 40.5117 16.0996 40.6445C16.0332 40.7773 16 40.9277 16 41.0957C16 41.2637 16.0391 41.418 16.1172 41.5586C16.1953 41.6953 16.3086 41.8027 16.457 41.8809C16.6094 41.959 16.793 41.998 17.0078 41.998C17.2969 41.998 17.5488 41.9395 17.7637 41.8223C17.9824 41.7012 18.1543 41.5547 18.2793 41.3828C18.4043 41.207 18.4707 41.041 18.4785 40.8848L18.9355 41.5117C18.8887 41.6719 18.8086 41.8438 18.6953 42.0273C18.582 42.2109 18.4336 42.3867 18.25 42.5547C18.0703 42.7188 17.8535 42.8535 17.5996 42.959C17.3496 43.0645 17.0605 43.1172 16.7324 43.1172C16.3184 43.1172 15.9492 43.0352 15.625 42.8711C15.3008 42.7031 15.0469 42.4785 14.8633 42.1973C14.6797 41.9121 14.5879 41.5898 14.5879 41.2305C14.5879 40.8945 14.6504 40.5977 14.7754 40.3398C14.9043 40.0781 15.0918 39.8594 15.3379 39.6836C15.5879 39.5078 15.8926 39.375 16.252 39.2852C16.6113 39.1914 17.0215 39.1445 17.4824 39.1445H18.5898ZM22.6973 37.8672V43H21.2852V36.6602H22.6328L22.6973 37.8672ZM24.6367 36.6191L24.625 37.9316C24.5391 37.916 24.4453 37.9043 24.3438 37.8965C24.2461 37.8887 24.1484 37.8848 24.0508 37.8848C23.8086 37.8848 23.5957 37.9199 23.4121 37.9902C23.2285 38.0566 23.0742 38.1543 22.9492 38.2832C22.8281 38.4082 22.7344 38.5605 22.668 38.7402C22.6016 38.9199 22.5625 39.1211 22.5508 39.3438L22.2285 39.3672C22.2285 38.9688 22.2676 38.5996 22.3457 38.2598C22.4238 37.9199 22.541 37.6211 22.6973 37.3633C22.8574 37.1055 23.0566 36.9043 23.2949 36.7598C23.5371 36.6152 23.8164 36.543 24.1328 36.543C24.2188 36.543 24.3105 36.5508 24.4082 36.5664C24.5098 36.582 24.5859 36.5996 24.6367 36.6191ZM27.9941 41.9922C28.2246 41.9922 28.4316 41.9473 28.6152 41.8574C28.8027 41.7637 28.9531 41.6348 29.0664 41.4707C29.1836 41.3066 29.248 41.1172 29.2598 40.9023H30.5898C30.582 41.3125 30.4609 41.6855 30.2266 42.0215C29.9922 42.3574 29.6816 42.625 29.2949 42.8242C28.9082 43.0195 28.4805 43.1172 28.0117 43.1172C27.5273 43.1172 27.1055 43.0352 26.7461 42.8711C26.3867 42.7031 26.0879 42.4727 25.8496 42.1797C25.6113 41.8867 25.4316 41.5488 25.3105 41.166C25.1934 40.7832 25.1348 40.373 25.1348 39.9355V39.7305C25.1348 39.293 25.1934 38.8828 25.3105 38.5C25.4316 38.1133 25.6113 37.7734 25.8496 37.4805C26.0879 37.1875 26.3867 36.959 26.7461 36.7949C27.1055 36.627 27.5254 36.543 28.0059 36.543C28.5137 36.543 28.959 36.6445 29.3418 36.8477C29.7246 37.0469 30.0254 37.3262 30.2441 37.6855C30.4668 38.041 30.582 38.4551 30.5898 38.9277H29.2598C29.248 38.6934 29.1895 38.4824 29.084 38.2949C28.9824 38.1035 28.8379 37.9512 28.6504 37.8379C28.4668 37.7246 28.2461 37.668 27.9883 37.668C27.7031 37.668 27.4668 37.7266 27.2793 37.8438C27.0918 37.957 26.9453 38.1133 26.8398 38.3125C26.7344 38.5078 26.6582 38.7285 26.6113 38.9746C26.5684 39.2168 26.5469 39.4688 26.5469 39.7305V39.9355C26.5469 40.1973 26.5684 40.4512 26.6113 40.6973C26.6543 40.9434 26.7285 41.1641 26.834 41.3594C26.9434 41.5508 27.0918 41.7051 27.2793 41.8223C27.4668 41.9355 27.7051 41.9922 27.9941 41.9922ZM33.0684 34V43H31.6621V34H33.0684ZM32.8223 39.5957L32.3652 39.5898C32.3691 39.1523 32.4297 38.748 32.5469 38.377C32.668 38.0059 32.8359 37.6836 33.0508 37.4102C33.2695 37.1328 33.5312 36.9199 33.8359 36.7715C34.1406 36.6191 34.4785 36.543 34.8496 36.543C35.1621 36.543 35.4434 36.5859 35.6934 36.6719C35.9473 36.7578 36.166 36.8965 36.3496 37.0879C36.5332 37.2754 36.6719 37.5215 36.7656 37.8262C36.8633 38.127 36.9121 38.4941 36.9121 38.9277V43H35.4941V38.916C35.4941 38.6113 35.4492 38.3691 35.3594 38.1895C35.2734 38.0098 35.1465 37.8809 34.9785 37.8027C34.8105 37.7207 34.6055 37.6797 34.3633 37.6797C34.1094 37.6797 33.8848 37.7305 33.6895 37.832C33.498 37.9336 33.3379 38.0723 33.209 38.248C33.0801 38.4238 32.9824 38.627 32.916 38.8574C32.8535 39.0879 32.8223 39.334 32.8223 39.5957Z" fill="#67686D"/>
</svg>
