<svg width="74" height="74" viewBox="0 0 74 74" fill="none" xmlns="http://www.w3.org/2000/svg">
<path fill-rule="evenodd" clip-rule="evenodd" d="M45.3137 6.42157C33.0174 6.42157 23.049 16.3898 23.049 28.6863C23.049 40.9828 33.0172 50.951 45.3137 50.951C45.8561 50.951 46.394 50.9314 46.9264 50.8934C46.8841 50.6764 46.862 50.453 46.862 50.2253C46.862 48.2717 48.4603 46.6733 50.414 46.6733H51.18C51.18 42.75 54.3605 39.5694 58.284 39.5694C60.2781 39.5694 62.0804 40.3911 63.3704 41.7146C66.0178 38.0516 67.5781 33.5513 67.5781 28.6864C67.5784 16.3899 57.6102 6.42157 45.3137 6.42157Z" fill="white"/>
<path fill-rule="evenodd" clip-rule="evenodd" d="M23.0492 28.6863C23.0492 16.3898 33.0174 6.42157 45.3139 6.42157C57.6104 6.42157 67.5786 16.3898 67.5786 28.6863C67.5786 33.5511 66.0183 38.0516 63.3709 41.7143C63.7549 42.1082 64.0936 42.5465 64.3786 43.0209C64.7679 42.9136 65.1777 42.856 65.601 42.856C66.8752 42.856 68.028 43.3754 68.8591 44.2141C71.8021 39.7608 73.5157 34.4239 73.5157 28.6864C73.5157 13.1109 60.8892 0.484459 45.3137 0.484459C37.3029 0.484459 30.072 3.82461 24.938 9.18818C22.5917 11.6392 20.6835 14.5129 19.3388 17.6835C17.905 21.0643 17.1118 24.7827 17.1118 28.6864C17.1118 34.8974 19.1196 40.6395 22.5215 45.2989C24.2486 47.6644 26.3351 49.7509 28.7005 51.4782C33.3602 54.8803 39.1025 56.8883 45.3137 56.8883C49.9574 56.8883 54.3388 55.7655 58.2019 53.7773C55.5983 53.7773 52.9946 53.7773 50.3908 53.7773C48.6818 53.7773 47.2423 52.5159 46.9264 50.8934C46.394 50.9316 45.8561 50.951 45.3137 50.951C33.0174 50.951 23.0492 40.9828 23.0492 28.6863Z" fill="#FF8700"/>
<path fill-rule="evenodd" clip-rule="evenodd" d="M19.3388 17.6833C20.6836 14.5127 22.5918 11.6391 24.9379 9.18803C24.165 7.74438 22.6426 6.76207 20.8906 6.76207C20.4672 6.76207 20.0573 6.81966 19.6682 6.92697C18.4262 4.85903 16.1616 3.47535 13.5739 3.47535C9.65037 3.47535 6.46993 6.65594 6.46993 10.5793H5.70388C3.75023 10.5793 2.15192 12.1776 2.15192 14.1312C2.15192 16.0619 3.74295 17.6832 5.68058 17.6832H19.3388V17.6833Z" fill="#0296E5"/>
<path fill-rule="evenodd" clip-rule="evenodd" d="M58.2841 39.5693C54.3606 39.5693 51.1801 42.7499 51.1801 46.6732H50.4141C48.4604 46.6732 46.8621 48.2715 46.8621 50.2252C46.8621 50.4528 46.8842 50.6764 46.9265 50.8932C47.2424 52.5156 48.6817 53.7771 50.3909 53.7771H58.202H70.1763C72.0131 53.7771 73.516 52.2743 73.516 50.4374C73.516 48.6004 72.0133 47.0977 70.1763 47.0977C70.0926 45.9759 69.6054 44.9664 68.8595 44.2138C68.0282 43.3752 66.8754 42.8558 65.6013 42.8558C65.1778 42.8558 64.768 42.9134 64.3788 43.0208C64.094 42.5464 63.7553 42.108 63.3711 41.7141C62.0805 40.391 60.2784 39.5693 58.2841 39.5693Z" fill="#0296E5"/>
<path fill-rule="evenodd" clip-rule="evenodd" d="M22.8814 57.5507L16.449 51.1183L1.93879 65.0238C0.00339407 66.9592 0.00339407 70.126 1.93879 72.0614C3.87419 73.9968 7.04098 73.9968 8.97637 72.0614L22.8814 57.5507Z" fill="#FF8700"/>
<path fill-rule="evenodd" clip-rule="evenodd" d="M16.449 51.1183L22.8814 57.5507L28.7006 51.4781C26.3351 49.7508 24.2487 47.6643 22.5216 45.2987L16.449 51.1183Z" fill="#FFC144"/>
</svg>
